# xmcd
#
# Track frame offsets:
#	150
#	16937
#	32917
#	49055
#	62152
#	80057
#	97425
#	115241
#	131217
#	146863
#	164573
#	178982
#
# Disc length: 2660 seconds
#
# Revision: 0
# Processed by: cddbd v1.5.2PL0 Copyright (c) Steve Scherf et al.
# Submitted via: EasyCDDAExtractor 16.0.6.1
#
DISCID=bc0a620c
DTITLE=Καρράς Βασίλης - Σαράντα εννέα μεγ. επιτυχίες-Β. Καρράς 2
DYEAR=2010
DGENRE=Λαϊκή νεώτερη
TTITLE0=Καρράς Βασίλης - Κάνω ένα τσιγάρο και φεύγω [Π. Ίμβριος-Γ. Λιόντος]
TTITLE1=Καρράς Βασίλης - Ένα τραγούδι πες μου ακόμα [Τ. Μουσαφίρης]
TTITLE2=Καρράς Βασίλης - Όπως παλιά [Βασίλης Καρράς]
TTITLE3=Καρράς Βασίλης - Και λέγε, λέγε [[Θ. Πολυκανδριώτης-Γ. Πάριος]
TTITLE4=Καρράς Βασίλης - Τσιγάρο ατέλειωτο [Σ. Μάλαμας-Γ. Αθανασόπουλος]
TTITLE5=Καρράς Βασίλης-Δάντης Χρήστος - Α, ρε μοναξιά [Χ. Δάντης-Δ. Τσάφας]
TTITLE6=Καρράς Βασίλης - Όλα είναι τίποτα [Β. Δαραμούσκας-Σ. Μαργωμένος]
TTITLE7=Καρράς Βασίλης - Εσύ μού λες ότι αν φύγεις θα πεθάνω[Α.Χρυσοβέργης-Σ.Γ
TTITLE7=ιατράς]
TTITLE8=Καρράς Βασίλης - Τσιγάρο που τελειώνει [Σ. Βογιατζής-Κ. Καραδήμου]
TTITLE9=Καρράς Βασίλης - Πάρε με [Βασίλης Καρράς]
TTITLE10=Καρράς Βασίλης - Ολική καταστροφή [Χ. Κωστόπουλος-Ε. Κουζέλης]
TTITLE11=Καρράς Βασίλης - Στο φως της αστραπής [Issaris-Γ. Πηλιανίδης]
EXTD=
EXTT0=
EXTT1=
EXTT2=
EXTT3=
EXTT4=
EXTT5=
EXTT6=
EXTT7=
EXTT8=
EXTT9=
EXTT10=
EXTT11=
PLAYORDER=
